<?xml version="1.0" encoding="UTF-8" standalone="no"?>
<!-- Created with Inkscape (http://www.inkscape.org/) -->

<svg
   width="48"
   height="48"
   viewBox="0 0 12.7 12.7"
   version="1.1"
   id="svg5"
   xmlns="http://www.w3.org/2000/svg"
   xmlns:svg="http://www.w3.org/2000/svg">
  <defs
     id="defs2" />
  <g
     id="layer1">
    <path
       id="path1228-0"
       style="fill:none;stroke:#904989;stroke-width:0.529167;stroke-linecap:butt;stroke-linejoin:miter;stroke-miterlimit:4;stroke-dasharray:none;stroke-opacity:1"
       d="M 7.6411094,5.9714687 9.2030698,9.5379451 8.52622,9.5119127 8.0576319,10.162729 6.5217042,6.4921221 M 4.961913,5.9714687 3.3999525,9.5379451 4.0768021,9.5119127 4.5453903,10.162729 6.0813181,6.4921221 M 7.0944232,4.7739653 A 0.83304551,0.83304551 0 0 1 6.2613776,5.6070108 0.83304551,0.83304551 0 0 1 5.428332,4.7739653 0.83304551,0.83304551 0 0 1 6.2613776,3.9409197 0.83304551,0.83304551 0 0 1 7.0944232,4.7739653 Z m 0.9111435,4e-7 A 1.7702219,1.7702219 0 0 1 6.2353448,6.5441876 1.7702219,1.7702219 0 0 1 4.4651229,4.7739657 1.7702219,1.7702219 0 0 1 6.2353448,3.0037437 1.7702219,1.7702219 0 0 1 8.0055667,4.7739657 Z" />
  </g>
</svg>
