<?xml version="1.0" encoding="UTF-8" standalone="no"?>
<!-- Created with Inkscape (http://www.inkscape.org/) -->

<svg
   width="48"
   height="48"
   viewBox="0 0 12.7 12.7"
   version="1.1"
   id="svg5"
   xmlns="http://www.w3.org/2000/svg"
   xmlns:svg="http://www.w3.org/2000/svg">
  <defs
     id="defs2" />
  <g
     id="layer1">
    <path
       id="path1113"
       style="fill:#ffffff;stroke:#904989;stroke-width:0.529167;stroke-linecap:round;stroke-linejoin:round"
       d="M 7.6752435,5.4522982 A 1.3271314,1.3160719 0 0 1 6.3481121,6.76837 1.3271314,1.3160719 0 0 1 5.0209807,5.4522982 1.3271314,1.3160719 0 0 1 6.3481121,4.1362263 1.3271314,1.3160719 0 0 1 7.6752435,5.4522982 Z m -1.227575,1.537456 A 2.5326092,2.3667178 0 0 0 3.9150065,9.3565346 2.5326092,2.3667178 0 0 0 3.9578978,9.7818317 4.0508618,4.0508618 0 0 0 6.3923745,10.597803 4.0508618,4.0508618 0 0 0 8.9550088,9.6820962 2.5326092,2.3667178 0 0 0 8.9803302,9.3565346 2.5326092,2.3667178 0 0 0 6.4476685,6.9897542 Z M 10.417614,6.532969 A 4.0508618,4.0508618 0 0 1 6.3667517,10.583831 4.0508618,4.0508618 0 0 1 2.3158898,6.532969 4.0508618,4.0508618 0 0 1 6.3667517,2.4821072 4.0508618,4.0508618 0 0 1 10.417614,6.532969 Z" />
  </g>
</svg>
