<?xml version="1.0" encoding="UTF-8" standalone="no"?>
<!-- Created with Inkscape (http://www.inkscape.org/) -->

<svg
   width="48"
   height="48"
   viewBox="0 0 12.7 12.7"
   version="1.1"
   id="svg5"
   xmlns="http://www.w3.org/2000/svg"
   xmlns:svg="http://www.w3.org/2000/svg">
  <defs
     id="defs2" />
  <g
     id="layer1">
    <path
       id="path1477"
       style="fill:none;stroke:#904989;stroke-width:0.529167;stroke-linecap:butt;stroke-linejoin:miter;stroke-miterlimit:4;stroke-dasharray:none;stroke-opacity:1"
       d="m 8.5090712,9.8430575 c -4.4250199,0 -4.4250199,0 -4.4250199,0 M 3.0405449,3.3287986 c 6.5120322,0 6.5120322,0 6.5120322,0 m 0,0 C 8.3904908,4.2985605 8.5802196,5.5151712 8.5802196,5.5151712 8.8173802,6.7670459 8.6750837,7.1020546 8.6750837,7.1020546 8.3430592,7.9131283 7.2995531,8.0894487 7.2995531,8.0894487 c -0.4743212,0.3173768 0.094864,1.5692518 0.094864,1.5692518 0.8063456,0.24581 1.1146542,0.184357 1.1146542,0.184357 M 3.0405449,3.3287986 C 4.2026317,4.2985605 4.0129031,5.5151712 4.0129031,5.5151712 3.7757426,6.7670459 3.918039,7.1020546 3.918039,7.1020546 4.2500637,7.9131283 5.2935701,8.0894487 5.2935701,8.0894487 5.7678913,8.4068255 5.1987059,9.6587005 5.1987059,9.6587005 4.39236,9.9045105 4.0840513,9.8430575 4.0840513,9.8430575" />
  </g>
</svg>
