<?xml version="1.0" encoding="UTF-8" standalone="no"?>
<!-- Created with Inkscape (http://www.inkscape.org/) -->

<svg
   width="48"
   height="48"
   viewBox="0 0 12.7 12.7"
   version="1.1"
   id="svg5"
   inkscape:version="1.1 (c68e22c387, 2021-05-23)"
   sodipodi:docname="essay-clinicLogo.svg"
   xmlns:inkscape="http://www.inkscape.org/namespaces/inkscape"
   xmlns:sodipodi="http://sodipodi.sourceforge.net/DTD/sodipodi-0.dtd"
   xmlns="http://www.w3.org/2000/svg"
   xmlns:svg="http://www.w3.org/2000/svg">
  <sodipodi:namedview
     id="namedview7"
     pagecolor="#ffffff"
     bordercolor="#666666"
     borderopacity="1.0"
     inkscape:pageshadow="2"
     inkscape:pageopacity="0.0"
     inkscape:pagecheckerboard="0"
     inkscape:document-units="mm"
     showgrid="false"
     units="px"
     inkscape:zoom="11.573962"
     inkscape:cx="28.814679"
     inkscape:cy="24.840241"
     inkscape:window-width="1920"
     inkscape:window-height="1001"
     inkscape:window-x="-9"
     inkscape:window-y="-9"
     inkscape:window-maximized="1"
     inkscape:current-layer="layer1" />
  <defs
     id="defs2" />
  <g
     inkscape:label="Layer 1"
     inkscape:groupmode="layer"
     id="layer1">
    <path
       id="path1383"
       style="fill:none;stroke:#000000;stroke-width:0.304463;stroke-linecap:butt;stroke-linejoin:miter;stroke-miterlimit:4;stroke-dasharray:none;stroke-opacity:1"
       d="m 1.8596156,10.882385 c 4.3603338,-0.627486 7.9124442,0.02514 7.9124442,0.02514 M 3.9639656,2.4291131 C 6.6970986,2.6322985 9.825076,2.3973561 9.825076,2.3973561 M 9.7720617,10.907518 C 9.4539605,8.3753539 9.8780931,9.0801834 10.143176,7.5138954 10.408259,5.9476077 9.825076,2.3973553 9.825076,2.3973553 M 1.8596156,10.882385 C 2.5104453,8.5161223 2.5972228,8.9404175 3.6168563,7.6838501 4.6364897,6.4272825 4.1158259,3.4408948 4.1158259,3.4408948 c 0,0 -0.1301659,-1.0444198 -0.1518604,-1.0117817" />
    <path
       style="fill:#e9c6af;stroke:#904989;stroke-width:0.0326483;stroke-linecap:round;stroke-linejoin:round;stroke-miterlimit:4;stroke-dasharray:none"
       d="m 9.3290963,10.666902 c -0.096323,-0.01536 -0.4760409,-0.05797 -0.843818,-0.09469 -1.8503331,-0.184757 -3.8744595,-0.173844 -5.7612399,0.03106 -0.3315425,0.036 -0.6082424,0.05975 -0.6148882,0.05276 C 2.0858709,10.631564 2.4191996,9.6128537 2.5295848,9.3711161 2.6897896,9.0202752 2.7970124,8.8694021 3.2094845,8.4144268 3.4113679,8.19174 3.6517764,7.9136597 3.7437256,7.7964703 4.38807,6.9752518 4.5622832,5.4876349 4.2674792,3.3241015 4.2149538,2.9386223 4.1752642,2.621326 4.1792805,2.6189986 c 0.00402,-0.00232 0.2222369,0.00898 0.4849349,0.025127 0.5346385,0.032861 4.0244168,0.00501 4.6171178,-0.036852 0.2101581,-0.014842 0.3875956,-0.022539 0.394306,-0.017103 0.037804,0.030626 0.2341801,1.6340467 0.3069161,2.5059942 0.027642,0.3313995 0.05043,0.9264125 0.050624,1.3222509 4.79e-4,0.9650172 -0.055423,1.3048082 -0.3394495,2.0630049 -0.1943562,0.518818 -0.229124,0.8182111 -0.1774052,1.5276644 0.021792,0.298902 0.047445,0.57735 0.057013,0.618775 0.019216,0.0832 0.025956,0.08212 -0.2442465,0.03905 z"
       id="path1539" />
    <text
       xml:space="preserve"
       style="font-style:normal;font-weight:normal;font-size:2.01531px;line-height:1.25;font-family:sans-serif;fill:#000000;fill-opacity:1;stroke:none;stroke-width:0.377869"
       x="7.3125253"
       y="4.5295925"
       id="text7938"
       transform="scale(0.97531087,1.0253141)"><tspan
         sodipodi:role="line"
         id="tspan7936"
         style="font-style:normal;font-variant:normal;font-weight:normal;font-stretch:normal;font-size:2.01531px;font-family:'MV Boli';-inkscape-font-specification:'MV Boli';fill:#ff0000;stroke-width:0.377869"
         x="7.3125253"
         y="4.5295925">A+</tspan></text>
    <text
       xml:space="preserve"
       style="font-size:2.01531px;line-height:0.4;font-family:sans-serif;fill:#904989;fill-opacity:1;stroke-width:0.377869"
       x="7.075449"
       y="6.1946526"
       id="text16900"
       transform="scale(0.97531087,1.0253141)"><tspan
         sodipodi:role="line"
         id="tspan16898"
         style="text-align:center;text-anchor:middle;fill:#904989;fill-opacity:1;stroke-width:0.377869"
         x="7.075449"
         y="6.1946526">....</tspan><tspan
         sodipodi:role="line"
         style="text-align:center;text-anchor:middle;fill:#904989;fill-opacity:1;stroke-width:0.377869"
         x="7.075449"
         y="7.0007768"
         id="tspan17796">.....</tspan><tspan
         sodipodi:role="line"
         style="text-align:center;text-anchor:middle;fill:#904989;fill-opacity:1;stroke-width:0.377869"
         x="7.075449"
         y="7.8069005"
         id="tspan19238">......</tspan></text>
  </g>
</svg>
